<svg width="492" height="118" viewBox="0 0 492 118" fill="none" xmlns="http://www.w3.org/2000/svg">
<path d="M191.79 50V12.9091H204.758C207.342 12.9091 209.473 13.3558 211.151 14.2493C212.829 15.1307 214.079 16.32 214.9 17.8171C215.721 19.3022 216.131 20.9503 216.131 22.7614C216.131 24.3551 215.848 25.6712 215.28 26.7095C214.725 27.7479 213.988 28.5689 213.071 29.1726C212.165 29.7763 211.181 30.223 210.119 30.5128V30.875C211.253 30.9474 212.394 31.3459 213.541 32.0703C214.689 32.7947 215.648 33.8331 216.421 35.1854C217.194 36.5376 217.58 38.1918 217.58 40.1477C217.58 42.0071 217.158 43.6793 216.312 45.1644C215.467 46.6495 214.133 47.8267 212.31 48.696C210.487 49.5653 208.114 50 205.192 50H191.79ZM196.282 46.0156H205.192C208.126 46.0156 210.209 45.4482 211.441 44.3132C212.684 43.1662 213.306 41.7777 213.306 40.1477C213.306 38.892 212.986 37.733 212.346 36.6705C211.706 35.5959 210.795 34.7386 209.611 34.0987C208.428 33.4467 207.028 33.1207 205.41 33.1207H196.282V46.0156ZM196.282 29.2088H204.613C205.965 29.2088 207.185 28.9432 208.271 28.4119C209.37 27.8807 210.239 27.1321 210.879 26.1662C211.531 25.2003 211.857 24.0653 211.857 22.7614C211.857 21.1314 211.29 19.7489 210.155 18.614C209.02 17.467 207.221 16.8935 204.758 16.8935H196.282V29.2088ZM224.96 50V12.9091H229.452V29.4261H249.229V12.9091H253.72V50H249.229V33.4105H229.452V50H224.96ZM264.234 50H259.525L273.144 12.9091H277.78L291.4 50H286.691L275.607 18.777H275.317L264.234 50ZM265.972 35.5114H284.952V39.4957H265.972V35.5114ZM297.177 50V12.9091H309.71C312.608 12.9091 314.986 13.4041 316.845 14.3942C318.705 15.3722 320.081 16.7184 320.975 18.4329C321.868 20.1474 322.315 22.0973 322.315 24.2827C322.315 26.468 321.868 28.4059 320.975 30.0962C320.081 31.7866 318.711 33.1147 316.864 34.0806C315.016 35.0344 312.656 35.5114 309.782 35.5114H299.64V31.4545H309.637C311.617 31.4545 313.211 31.1648 314.419 30.5852C315.638 30.0057 316.519 29.1847 317.063 28.1222C317.618 27.0476 317.896 25.7678 317.896 24.2827C317.896 22.7976 317.618 21.4996 317.063 20.3888C316.507 19.2781 315.62 18.4208 314.401 17.8171C313.181 17.2013 311.569 16.8935 309.565 16.8935H301.669V50H297.177ZM314.636 33.3381L323.764 50H318.548L309.565 33.3381H314.636ZM331.321 50H326.612L340.231 12.9091H344.867L358.487 50H353.778L342.694 18.777H342.404L331.321 50ZM333.059 35.5114H352.039V39.4957H333.059V35.5114ZM357.903 16.8935V12.9091H385.721V16.8935H374.057V50H369.566V16.8935H357.903Z" fill="#1F2937"/>
<path d="M191.482 106.179V71.6337H212.196V75.3447H195.665V87.0173H210.644V90.7282H195.665V106.179H191.482ZM242.031 71.6337H246.214V94.5066C246.214 96.8681 245.658 98.9766 244.544 100.832C243.442 102.676 241.885 104.133 239.872 105.201C237.859 106.258 235.498 106.786 232.787 106.786C230.077 106.786 227.716 106.258 225.703 105.201C223.69 104.133 222.127 102.676 221.014 100.832C219.912 98.9766 219.361 96.8681 219.361 94.5066V71.6337H223.544V94.1693C223.544 95.856 223.915 97.3573 224.657 98.673C225.399 99.9774 226.456 101.006 227.828 101.76C229.211 102.502 230.865 102.873 232.787 102.873C234.71 102.873 236.363 102.502 237.747 101.76C239.13 101.006 240.187 99.9774 240.918 98.673C241.66 97.3573 242.031 95.856 242.031 94.1693V71.6337ZM252.679 75.3447V71.6337H278.588V75.3447H267.725V106.179H263.542V75.3447H252.679ZM307.715 71.6337H311.898V94.5066C311.898 96.8681 311.341 98.9766 310.228 100.832C309.126 102.676 307.568 104.133 305.556 105.201C303.543 106.258 301.181 106.786 298.471 106.786C295.761 106.786 293.399 106.258 291.387 105.201C289.374 104.133 287.811 102.676 286.697 100.832C285.595 98.9766 285.044 96.8681 285.044 94.5066V71.6337H289.227V94.1693C289.227 95.856 289.599 97.3573 290.341 98.673C291.083 99.9774 292.14 101.006 293.512 101.76C294.895 102.502 296.548 102.873 298.471 102.873C300.394 102.873 302.047 102.502 303.43 101.76C304.813 101.006 305.87 99.9774 306.601 98.673C307.344 97.3573 307.715 95.856 307.715 94.1693V71.6337ZM320.252 106.179V71.6337H331.924C334.623 71.6337 336.838 72.0948 338.57 73.0169C340.302 73.9278 341.584 75.1816 342.416 76.7785C343.248 78.3753 343.664 80.1914 343.664 82.2268C343.664 84.2622 343.248 86.067 342.416 87.6414C341.584 89.2157 340.308 90.4527 338.587 91.3523C336.867 92.2407 334.668 92.6849 331.992 92.6849H322.546V88.9065H331.857C333.701 88.9065 335.185 88.6366 336.31 88.0968C337.446 87.557 338.267 86.7924 338.773 85.8028C339.29 84.8019 339.549 83.61 339.549 82.2268C339.549 80.8436 339.29 79.6347 338.773 78.6002C338.255 77.5656 337.429 76.7672 336.293 76.2049C335.157 75.6314 333.656 75.3447 331.789 75.3447H324.435V106.179H320.252ZM336.512 90.6607L345.014 106.179H340.156L331.789 90.6607H336.512ZM354.818 71.6337V106.179H350.635V71.6337H354.818ZM367.389 71.6337V106.179H363.206V71.6337H367.389ZM394.669 80.2701C394.466 78.5608 393.645 77.2339 392.206 76.2893C390.767 75.3447 389.001 74.8724 386.909 74.8724C385.38 74.8724 384.042 75.1198 382.895 75.6146C381.759 76.1094 380.871 76.7897 380.23 77.6556C379.6 78.5215 379.285 79.5054 379.285 80.6075C379.285 81.5296 379.504 82.3224 379.943 82.9858C380.393 83.6381 380.966 84.1835 381.664 84.622C382.361 85.0493 383.092 85.4036 383.856 85.6847C384.621 85.9546 385.324 86.1739 385.965 86.3426L389.473 87.2872C390.373 87.5233 391.374 87.8494 392.476 88.2655C393.589 88.6816 394.652 89.2495 395.664 89.9691C396.687 90.6776 397.531 91.5885 398.194 92.7017C398.858 93.815 399.189 95.1813 399.189 96.8006C399.189 98.6674 398.7 100.354 397.722 101.861C396.755 103.368 395.338 104.566 393.471 105.454C391.616 106.342 389.361 106.786 386.707 106.786C384.233 106.786 382.091 106.387 380.28 105.589C378.481 104.79 377.064 103.677 376.03 102.249C375.006 100.821 374.427 99.1622 374.292 97.2729H378.61C378.723 98.5774 379.161 99.6569 379.926 100.512C380.702 101.355 381.68 101.985 382.861 102.401C384.053 102.806 385.335 103.008 386.707 103.008C388.304 103.008 389.738 102.749 391.008 102.232C392.279 101.704 393.286 100.973 394.028 100.039C394.77 99.0947 395.141 97.9926 395.141 96.7332C395.141 95.5862 394.82 94.6528 394.18 93.9331C393.539 93.2134 392.695 92.6287 391.649 92.1788C390.604 91.729 389.473 91.3354 388.259 90.9981L384.008 89.7836C381.309 89.0077 379.173 87.9 377.598 86.4606C376.024 85.0212 375.237 83.1376 375.237 80.8099C375.237 78.8757 375.76 77.1889 376.806 75.7495C377.863 74.2989 379.28 73.1743 381.056 72.3759C382.844 71.5663 384.84 71.1614 387.044 71.1614C389.271 71.1614 391.25 71.5606 392.982 72.3591C394.714 73.1462 396.086 74.2258 397.098 75.5977C398.121 76.9696 398.661 78.5271 398.717 80.2701H394.669ZM404.178 75.3447V71.6337H430.087V75.3447H419.224V106.179H415.041V75.3447H404.178ZM451.32 106.179H446.934L459.619 71.6337H463.937L476.621 106.179H472.236L461.913 77.0989H461.643L451.32 106.179ZM452.939 92.6849H470.616V96.3958H452.939V92.6849ZM486.185 71.6337V106.179H482.002V71.6337H486.185Z" fill="#1F2937"/>
<path d="M39.3576 105.338C40.4814 110.731 44.3149 109.672 48.4193 109.672C52.9633 109.672 57.5082 109.662 62.0525 109.638C71.6696 109.587 77.2028 108.903 83.6778 103.945C95.1135 95.1878 96.8879 78.9006 88.8907 67.7884C88.416 67.1288 87.7298 66.455 87.4261 65.843L84.4878 62.9197C77.546 57.379 71.2778 55.9107 62.2418 55.8407C58.3967 55.8109 54.2292 55.7184 50.4013 55.8748L50.3852 25.7753C55.0159 25.9858 62.1952 25.2624 66.3892 26.0847C75.5477 27.8801 79.5892 37.5499 75.6589 45.5566C73.2715 50.4204 67.1001 52.9701 67.0945 52.9652L73.8777 53.9598C74.217 53.2704 74.6021 53.2179 75.1381 52.7985C75.9378 52.1728 77.6975 49.9801 78.2629 49.1139C83.7489 40.7061 81.5012 29.0411 72.1294 23.9605C70.0274 22.8211 67.5498 22.0438 64.8997 21.9534L46.3924 22.0382L46.4206 59.713C48.4436 59.9902 52.2701 59.7713 54.4783 59.7617C59.3215 59.7408 72.9204 59.3195 75.8669 62.3209C76.8058 62.3829 79.3279 64.0278 80.0431 64.5183C81.5837 65.5744 83.9401 67.8159 84.9793 69.2418C88.8049 74.4905 90.6791 80.1019 89.5891 86.9661C87.9346 97.3841 79.5694 104.6 69.2033 105.711C65.2974 106.13 60.2149 105.854 56.1825 105.859C53.4039 105.862 45.2573 106.292 43.4296 105.491C43.0681 103.546 43.314 69.5642 43.3506 66.9938C47.4362 66.7143 52.5381 67.0066 56.7505 66.9908C64.7721 66.9598 72.7727 66.0168 78.3837 72.2396C80.3724 74.4453 82.3035 77.2792 82.8127 81.395C83.8636 89.887 78.5904 95.7808 72.4667 97.8499C67.9238 99.3849 58.6533 98.8251 53.1529 98.8483C51.4176 98.8553 47.9691 98.6615 46.4552 98.9053L46.4045 102.73C48.3567 103.016 67.025 102.887 69.2524 102.591C76.2984 101.655 80.9617 98.0462 83.7103 93.9464C86.968 89.0875 88.0408 81.6046 85.3035 75.5402C83.8604 72.3431 82.5086 70.7025 80.5022 68.7923L77.3084 66.308C76.2423 65.6374 74.701 64.852 73.3476 64.3825C68.0776 62.7819 64.3754 63.1708 58.8335 63.1338C53.7439 63.0999 48.4194 63.3102 43.3271 63.1344L43.3846 18.907C44.9435 18.5374 51.7939 18.8308 53.9103 18.8286C60.9855 18.8206 66.7058 18.094 72.9922 21.0143C76.2103 22.5093 76.9144 23.4773 79.0744 25.5366C85.2238 31.3992 85.6689 42.39 81.5308 49.5346C79.6154 52.8415 78.2246 53.5057 76.869 55.2095L80.9874 57.1135C81.4 56.3673 81.7982 56.1934 82.3352 55.4554C82.7826 54.8402 83.1878 54.348 83.6424 53.7377C86.1934 50.3145 88.0106 45.1968 88.2884 40.7051C88.6023 35.6272 87.4645 30.7636 84.854 26.5715C84.4724 25.959 84.0865 25.2746 83.6636 24.7307L81.6103 22.4314C80.4735 21.3118 81.6378 22.1306 79.2659 20.2333C75.8345 17.4885 71.306 15.609 66.7378 15.1676C62.9832 14.8047 59.0261 14.9946 55.2359 14.9886C51.53 14.9826 47.1494 14.8051 43.5182 15.031C38.8456 15.3218 39.2478 19.9193 39.2469 22.6759L39.2748 81.7533C39.262 89.4107 39.0077 97.7536 39.3576 105.338ZM156.053 14.8358C155.378 15.1939 127.556 15.0158 124.159 15.0209C118.618 15.0289 115.012 15.0801 110.223 17.2626C106.575 18.9247 103.202 21.8762 101.432 24.3737C95.2799 33.0558 96.5079 40.1275 96.4682 51.6463C96.4314 62.2587 96.2554 73.2565 96.5141 83.8348C97.3583 86.0744 100.505 86.0538 100.531 82.8982C100.553 80.1365 100.539 77.3222 100.527 74.5576L100.513 41.6107C100.529 31.7957 103.607 24.7786 112.386 20.5606C116.654 18.5104 122.18 18.8661 127.189 18.8573C138.212 18.8379 149.254 18.9465 160.275 18.8125C161.22 15.5886 162.591 13.1935 166.383 13.0162C174.176 12.6518 175.702 23.4541 168.754 25.6209C166.929 26.19 165.202 26.0019 163.702 25.1682C162.744 24.6355 161.868 23.7805 161.372 22.9582L160.709 22.0189C160.234 21.8081 131.478 21.969 128.325 21.9735C123.43 21.9805 117.67 21.3845 113.527 23.4031C103.212 28.4294 103.589 36.8371 103.614 46.1551L103.61 95.1505C104.147 94.9283 103.671 95.3345 103.816 94.7736C103.884 94.5106 103.875 94.3604 103.877 94.0891C103.881 93.5841 103.85 93.115 103.864 92.5902C105.197 92.2692 106.096 90.8593 107.229 90.5138L107.241 94.8983C106.904 94.2126 107.231 86.3401 107.224 84.4037C107.221 83.6191 107.079 82.0181 107.268 81.377C107.386 80.9739 107.347 81.0935 107.508 80.8662C107.508 75.5816 108.71 71.7914 111.591 67.8604C114.012 64.5574 117.619 61.988 122.093 60.9163C129.461 59.1514 137.527 62.4002 136.729 58.0952C136.361 56.1114 134.376 56.5451 132.301 56.5399C124.808 56.5208 119.735 56.1399 113.329 60.6964C110.252 62.8852 110.751 62.7117 108.822 64.9023C108.311 65.4826 107.942 65.9367 107.57 66.5487C107.277 63.3246 107.558 58.6268 107.574 55.2439C107.592 51.3941 107.562 47.5426 107.577 43.6936C107.593 39.5896 107.307 37.1353 108.814 33.4605C109.892 30.8352 112.094 28.5882 114.328 27.4264C117.905 25.5668 119.914 25.8588 124.159 25.8443C128.009 25.8312 131.859 25.8393 135.709 25.828C143.439 25.8058 151.171 25.8172 158.9 25.819C160.735 29.3537 170.092 32.4349 175.274 24.75C176.452 23.0033 176.973 20.5101 176.657 18.0642C175.674 10.4451 165.861 6.14862 159.466 12.5406C158.558 13.4483 158.45 13.8047 157.674 14.8805L156.053 14.8358ZM3.35381 54.1052C2.04651 52.163 3.33841 47.6169 6.00481 46.5256C6.52471 46.7778 7.03581 47.1612 7.90051 47.2759C8.00501 49.3478 8.32391 50.5576 7.07011 51.9561C6.35011 52.7593 4.54251 53.9034 3.35381 54.1052ZM10.4592 43.796C11.1517 43.3194 14.2326 42.759 14.8537 42.9784C16.3064 43.4913 17.2297 43.754 18.7906 42.6531L19.2592 42.3425C20.9931 44.8449 20.0978 46.6743 19.1417 48.844C17.6701 48.6176 16.3391 48.5919 15.3662 49.458C15.0873 49.7063 14.615 50.4216 14.4254 50.9795C14.0946 51.9536 14.372 52.529 14.1468 53.2067C9.24921 55.1751 7.89521 48.3192 9.47161 46.7772C11.0631 45.22 10.1823 45.5448 10.4592 43.796ZM13.4064 41.6534L10.5283 42.7617C9.80831 42.993 10.0776 43.0685 9.66661 42.6724C8.91911 41.8669 9.40961 36.4844 10.5525 34.429C11.5182 34.9289 12.1773 36.3208 12.9525 37.3263C14.114 38.8326 12.094 37.9413 13.4064 41.6534ZM27.6607 41.0426C26.9517 42.2523 26.4155 42.5802 24.8644 43.2448C19.5702 45.513 20.3391 41.7229 20.2516 39.7167C20.1721 37.8931 19.0895 37.376 18.4177 36.4982C18.6154 35.5898 19.0381 34.959 19.4694 34.2481L20.8798 32.3067C21.7522 32.4511 25.0161 33.5345 26.0398 30.9641C29.0213 31.4324 32.5473 33.7354 32.8339 36.3315C33.2234 39.8568 32.4687 44.5929 32.8642 48.2968C33.0738 50.2594 33.4803 51.7783 32.4874 53.5066C30.9071 56.2574 27.3665 57.5525 24.1801 57.435C22.0569 57.3567 20.4752 57.0097 20.0416 55.2439C20.403 54.3885 21.0518 54.3703 21.3082 53.1175C21.8107 50.6615 20.1812 50.5021 20.561 49.189C20.6564 48.8594 20.9098 48.3175 21.0536 47.9529C21.9319 45.7254 24.4888 43.052 27.3734 44.6667C28.2246 45.1431 28.7275 45.5988 29.1984 46.2505C29.434 46.5769 29.6578 46.8772 29.9287 47.2253L30.8675 48.2585C30.1047 46.3013 29.1229 46.0332 28.9807 43.1243C28.9641 42.7825 28.9495 41.8243 29.0812 41.5399C29.395 40.8626 29.4659 41.2806 30.2733 40.8828C30.9887 40.5299 31.6099 39.6292 31.5861 38.582C31.542 36.639 29.443 35.0075 27.4679 36.3748C26.8934 36.7724 26.242 37.6005 26.3087 38.7489C26.3588 39.6122 26.7045 40.0119 27.178 40.507L27.6607 41.0426ZM16.9438 36.0857C15.0792 36.3709 15.3575 36.2653 13.9976 37.0207C13.2059 36.2126 12.0169 35.2938 12.1801 33.2008C14.3149 32.0773 14.5858 32.2906 13.8978 29.406C15.3512 28.344 16.8911 27.4763 19.5142 27.4567C19.2997 28.6684 19.0815 28.8001 19.4319 30.1049C19.732 31.2215 19.3858 30.9904 18.735 31.9955C18.072 33.0192 17.5148 34.8995 16.9438 36.0857ZM24.1053 25.3265C24.3444 23.6407 25.5519 21.9793 26.4106 21.3032C27.3771 20.5422 29.5505 19.2315 31.1685 20.2316C33.6736 21.78 32.8931 30.2323 32.6746 30.7781C31.2382 31.142 27.6847 30.4393 26.9162 29.5976C26.504 29.1465 26.3754 27.5765 25.969 26.9471C25.4447 26.135 24.9951 25.9296 24.1053 25.3265ZM0.493107 64.3924C1.14171 64.3043 0.724409 63.7242 0.572609 62.8709C0.454009 62.2053 0.444409 61.6865 0.457909 61.0065L0.43161 62.3326C1.28981 62.6045 0.65301 62.2307 1.35371 62.9007C1.53761 61.9369 1.24321 62.465 1.73341 61.9446C1.98871 63.4498 1.89031 63.1474 2.44031 63.1954C2.02391 61.5332 2.23121 60.7869 2.62691 59.2332C5.26271 58.721 5.49351 57.7334 4.97671 55.1404C6.16111 54.4696 7.47201 53.3021 9.60181 53.5257C11.8166 53.7581 11.9355 54.6305 14.9974 54.4237C16.0024 56.2311 17.7255 55.6454 18.4844 56.0424C18.5688 56.0865 19.2244 56.6171 19.5671 56.8283C21.3952 57.956 21.1073 58.4058 20.4986 62.1482C19.8056 66.4114 20.607 69.7255 24.7534 71.658C23.3953 77.1234 30.0993 76.8592 30.1103 73.0434C30.1163 70.9635 28.5955 69.933 26.4549 70.21C24.2295 70.4981 23.1113 69.1644 22.0912 68.1262C19.5541 65.5437 21.65 58.2421 28.9163 58.0878C30.9137 58.0453 32.4977 58.8695 32.7473 60.5467C33.2815 61.2764 33.081 62.6709 33.0808 63.9539C33.0805 67.994 33.261 86.6864 32.9947 87.6315L33.3777 65.6392C33.5778 65.6975 33.3952 65.8232 34.058 65.5054C34.654 65.2198 34.5663 64.8657 35.3488 65.6581C35.2363 66.7707 35.4793 65.7849 34.8062 66.5846C35.6605 67.2144 35.3648 68.5897 35.3784 70.3919C35.3945 72.5267 35.2676 82.2215 35.754 83.0474L35.767 28.1668C35.778 24.6129 36.0607 21.3827 33.8776 19.0408C30.1422 15.034 22.7246 18.7691 21.5678 25.201C17.7153 24.9826 15.0545 25.5356 12.1434 27.8684C11.2093 28.617 10.3296 28.4933 9.76821 29.4746C8.93421 30.9322 10.1372 31.4231 9.43371 32.337C9.03521 32.8548 8.89951 32.8521 8.50111 33.5042C6.34361 37.0358 7.31981 41.6077 7.20931 41.9894C6.86001 42.4493 6.39771 42.7151 6.10741 43.038C5.51571 43.6964 5.95431 43.5871 5.13471 44.1506C4.15951 44.8209 3.49831 45.1053 2.85791 45.846C-1.06939 50.3906 0.963407 53.9488 0.741707 54.9557C0.633007 55.4495 0.273808 55.6857 0.224308 56.4173C0.167908 57.2522 0.478408 57.3065 0.618508 57.8073C0.813508 58.5044 -0.769093 61.2653 0.493107 64.3924ZM32.867 100.695C32.7515 103.119 32.2372 105.007 30.6139 105.798C28.5596 106.8 26.4471 105.877 25.0493 104.747C23.9083 103.825 22.3024 102.494 22.228 100.091C24.5083 100.315 23.2667 100.056 24.4284 100.82C25.0325 101.217 25.7993 101.294 26.5679 101.171C29.7944 100.652 29.8142 95.6156 26.2534 95.4021C24.4964 95.2967 23.6334 96.3186 23.1134 97.5148L21.8342 97.36C21.2411 94.7675 22.0145 94.7903 22.173 92.8569C21.8605 93.3036 21.0065 93.942 20.492 94.5332C19.7122 95.4289 19.7548 96.1374 19.2592 96.728C17.8498 96.4445 16.7492 94.8869 16.1602 93.558C15.5963 92.2862 14.7581 90.5061 14.5576 89.1376C14.9069 88.7361 15.0927 88.7834 15.5772 88.2981C16.4414 87.4331 16.0698 86.9901 17.6439 86.5765C22.4714 85.3085 23.0636 88.2481 23.9297 89.0126C25.6486 90.5301 27.1883 87.9808 29.9511 89.0436C34.1795 90.6698 33.0393 97.0838 32.867 100.695ZM19.2477 81.183L18.9214 81.2912C18.9798 83.3202 18.3072 85.0677 16.3503 85.8053C16.1418 84.5258 15.3788 83.4914 14.1237 83.2627C12.1973 82.9115 11.6963 83.9628 10.9278 84.8168C8.95451 84.3211 6.60611 82.4884 5.97151 81.028C4.90251 78.5679 5.76611 76.2493 6.59371 74.1773C7.75181 74.1981 10.4164 74.5776 10.8323 71.8504C12.288 71.9856 13.0865 72.2878 14.0396 72.9601C15.12 73.7222 15.8282 73.7677 15.4084 75.243C14.7099 77.6971 16.1738 79.8283 18.2179 80.2778L19.4476 80.3199C20.9343 79.9282 21.5747 79.4981 22.1382 78.3814C23.2914 76.0961 22.2942 73.3467 19.7618 72.7345C17.9984 72.3082 17.2723 73.1448 16.1421 73.6316C14.6411 70.2279 11.6562 71.3162 10.6728 70.0771C9.33221 68.388 10.0769 68.3754 10.5968 66.6467C10.818 65.9116 10.8966 64.2689 11.3235 63.7751C11.8959 63.1132 12.6725 62.514 11.5963 61.3923C10.849 60.6132 9.62531 60.8423 9.19791 61.6651C8.49921 63.0097 9.44111 63.5536 9.91231 64.1434C8.77641 68.6738 8.34231 67.3675 5.88131 68.7783C4.79601 67.6809 4.62981 67.583 3.83031 66.3175C3.08211 65.1335 2.88441 64.584 2.44031 63.1954C1.89031 63.1474 1.98871 63.4498 1.73341 61.9446C1.24321 62.465 1.53761 61.9369 1.35371 62.9007C0.65301 62.2307 1.28981 62.6045 0.43161 62.3326L0.457909 61.0065C0.444409 61.6865 0.454009 62.2053 0.572609 62.8709C0.724409 63.7242 1.14171 64.3043 0.493107 64.3924C0.838407 65.8834 1.47651 66.9616 2.12161 68.2152C3.33401 70.5716 3.36201 70.0319 4.29361 71.1582C5.39681 72.4922 4.26211 73.2255 3.68001 74.5049C1.04061 80.3073 4.53181 85.0287 9.87781 87.1552C10.9208 87.57 10.8061 87.5154 11.4251 88.2622C12.0835 89.0569 12.1507 88.7673 12.8914 89.3019C13.4432 90.1615 13.0861 95.3706 17.615 98.7295L18.2049 99.1729C20.0744 99.5128 19.4497 100.711 20.1686 102.426C21.7001 106.081 25.3192 109.537 29.8251 108.764C36.4487 107.628 35.805 100.035 35.7304 93.4313L35.754 83.0474C35.2676 82.2215 35.3945 72.5267 35.3784 70.3919C35.3648 68.5897 35.6605 67.2144 34.8062 66.5846C35.4793 65.7849 35.2363 66.7707 35.3488 65.6581C34.5663 64.8657 34.654 65.2198 34.058 65.5054C33.3952 65.8232 33.5778 65.6975 33.3777 65.6392L32.9947 87.6315C33.261 86.6864 33.0805 67.994 33.0808 63.9539C33.081 62.6709 33.2815 61.2764 32.7473 60.5467L32.7217 88.0607C31.5044 87.7266 30.7153 87.2102 30.2206 86.1065C29.4248 84.3309 31.2168 84.8278 30.4633 83.0519C29.4087 80.5669 24.973 83.6373 28.6644 85.3507C28.4794 88.5554 24.8345 87.549 22.8687 86.4782C20.9947 85.4574 19.5366 83.3878 19.2477 81.183ZM124.202 63.6916C115.898 64.7836 111.35 71.3563 110.716 79.0943L110.666 93.4901C111.025 95.5888 114.358 95.8707 114.563 93.1262C115.203 84.537 112.263 74.7113 119.838 69.4802C126.698 64.7433 137.924 70.1858 136.913 65.1947C136.479 63.0562 133.376 63.5228 131.355 63.5281C129.045 63.5341 126.456 63.3953 124.202 63.6916ZM103.826 98.6645C110.275 97.9046 111.859 107.461 105.409 108.673C98.598 109.952 97.2171 99.4436 103.826 98.6645ZM103.61 95.1505C102.508 95.484 101.771 95.496 100.726 95.999C93.3668 99.5436 95.0953 110.724 103.158 112.04C107.92 112.816 111.744 109.537 112.676 105.872C113.959 100.826 110.843 97.0225 107.531 95.7474L107.508 80.8662C107.347 81.0935 107.386 80.9739 107.268 81.377C107.079 82.0181 107.221 83.6191 107.224 84.4037C107.231 86.3401 106.904 94.2126 107.241 94.8983L107.229 90.5138C106.096 90.8593 105.197 92.2692 103.864 92.5902C103.85 93.115 103.881 93.5841 103.877 94.0891C103.875 94.3604 103.884 94.5106 103.816 94.7736C103.671 95.3345 104.147 94.9283 103.61 95.1505ZM161.155 53.9185C160.654 55.4349 159.257 59.2975 158.579 60.47C155.959 60.1383 154.722 61.7176 155.138 64.2675L143.286 68.6505C142.939 68.3892 141.906 66.382 139.746 67.0267C138.611 67.3654 137.564 68.7312 137.876 70.3193C138.494 73.4642 143.321 73.3553 143.389 69.5407L155.624 65.0734C156.291 65.6162 156.275 66.1584 157.677 66.2771C159.806 66.4576 161.189 64.767 160.797 62.724C160.553 61.4513 159.98 61.5057 159.445 60.7351L161.838 54.0677C166.317 54.4119 166.938 48.871 163.635 47.7648C160.224 46.6224 157.512 50.7858 160.823 53.6233C161.06 53.8259 160.986 53.7229 161.155 53.9185ZM165.675 15.2469C160.003 16.8557 162.443 25.2244 167.963 23.6744C173.291 22.1779 171.19 13.6824 165.675 15.2469ZM101.704 104.475C102.743 108.045 108.258 106.641 107.262 102.829C106.323 99.2361 100.569 100.57 101.704 104.475ZM140.928 55.2406C139.165 55.8545 138.685 57.4124 139.244 58.9103C139.691 60.1051 141.188 61.1713 142.953 60.4048C145.672 59.2243 144.51 53.9929 140.928 55.2406ZM18.9214 81.2912L19.2477 81.183L19.1167 80.6111C20.0064 80.3463 19.0319 80.6489 19.4476 80.3199L18.2179 80.2778L18.95 80.6169L18.9214 81.2912Z" fill="url(#paint0_linear_12_12)"/>
<defs>
<linearGradient id="paint0_linear_12_12" x1="0" y1="9.43799" x2="0" y2="112.155" gradientUnits="userSpaceOnUse">
<stop stop-color="#1F2937"/>
</linearGradient>
</defs>
</svg>
